<svg width="126" height="22" viewBox="0 0 126 22" fill="none" xmlns="http://www.w3.org/2000/svg">
<path d="M0.0853271 5.48988C0.0853271 4.63485 0.60043 4.17381 1.63064 4.10674L5.60048 4.13189C5.86691 4.13189 6.04453 4.25763 6.13334 4.50911C6.54187 5.76651 6.99925 6.85206 7.50547 7.76577C8.01169 8.67948 8.67333 9.7315 9.49039 10.9218C9.56144 11.0727 9.6769 11.1482 9.83675 11.1482C9.96109 11.1482 10.0588 11.0895 10.1298 10.9721L10.2098 10.6955L10.2364 6.34491C10.2364 6.04313 10.1609 5.84195 10.0099 5.74136C9.85896 5.64077 9.5792 5.56532 9.17067 5.51503C8.85096 5.46473 8.6911 5.28031 8.6911 4.96177C8.6911 4.89471 8.69998 4.84442 8.71774 4.81089C9.09074 3.72114 10.1565 3.17627 11.9149 3.17627L13.4069 3.15112C14.0819 3.15112 14.6414 3.31039 15.0855 3.62893C15.5295 3.94747 15.7516 4.45043 15.7516 5.13781V10.8464C15.8759 10.9302 15.9913 10.9721 16.0979 10.9721C16.3643 10.9721 16.5953 10.8212 16.7906 10.5195C18.7445 7.93761 19.8013 6.21079 19.9612 5.33899C19.9612 5.32223 19.979 5.28031 20.0145 5.21325C20.1388 4.96177 20.3431 4.74383 20.6273 4.55941C20.9115 4.37499 21.1601 4.24925 21.3733 4.18219C21.4443 4.14866 21.5243 4.13189 21.6131 4.13189H25.7428L26.0092 4.15704C26.3644 4.15704 26.6398 4.31631 26.8351 4.63485C26.9062 4.73544 26.955 4.84442 26.9817 4.96177C27.0083 5.07913 27.0261 5.19649 27.035 5.31384C27.0438 5.4312 27.0483 5.49826 27.0483 5.51503V5.69106C26.924 6.37844 26.6087 7.11192 26.1025 7.89151C25.5962 8.67109 24.9524 9.51355 24.1708 10.4189C23.3893 11.3242 22.9008 11.9194 22.7054 12.2044C22.5456 12.4056 22.4657 12.59 22.4657 12.7576C22.4657 12.8918 22.5367 13.0426 22.6788 13.2103L26.5687 17.8375C26.7819 18.1058 26.8884 18.3992 26.8884 18.7177C26.8884 19.1033 26.7286 19.4218 26.4089 19.6733C26.0891 19.9248 25.7072 20.0673 25.2632 20.1008L24.8103 20.126H20.7605C20.7427 20.126 20.7072 20.1302 20.6539 20.1385C20.6006 20.1469 20.5651 20.1511 20.5473 20.1511C20.1566 20.1511 19.7924 19.9919 19.455 19.6733C19.3306 19.5392 18.4958 18.55 16.9505 16.7059C16.8617 16.5885 16.7374 16.4795 16.5775 16.3789C16.5064 16.6472 16.4132 17.0328 16.2977 17.5357C16.1823 18.0387 16.0979 18.3992 16.0446 18.6171L15.9647 19.0446C15.7871 19.6314 15.4141 19.9835 14.8457 20.1008L14.4727 20.126H11.8616C10.3874 20.126 8.91756 19.4889 7.45218 18.2147C5.98681 16.9406 4.66797 15.2934 3.49566 13.2732C2.32336 11.2529 1.23099 8.90162 0.218543 6.21917C0.129733 6.00122 0.0853271 5.75813 0.0853271 5.48988ZM16.0979 12.0032C15.7249 12.0032 15.3874 11.9068 15.0855 11.714C14.7835 11.5212 14.6325 11.2571 14.6325 10.9218V5.13781C14.6325 4.8025 14.5437 4.5636 14.3661 4.42109C14.1885 4.27859 13.8776 4.20734 13.4336 4.20734L11.9149 4.25763C11.1512 4.25763 10.5739 4.38337 10.1831 4.63485C10.9647 4.98692 11.3554 5.55694 11.3554 6.34491V10.7709C11.3199 11.1901 11.1423 11.538 10.8226 11.8146C10.5028 12.0912 10.1476 12.2295 9.75682 12.2295C9.22396 12.2295 8.81543 11.9864 8.53124 11.5002C7.14579 9.52193 6.11558 7.64422 5.44062 5.8671L5.20083 5.21325L1.65728 5.18811C1.42637 5.18811 1.29759 5.20068 1.27095 5.22583C1.24431 5.25098 1.23099 5.32223 1.23099 5.43958C1.23099 5.59047 1.24875 5.74974 1.28427 5.9174L1.84378 7.32568C3.3358 10.9637 4.9566 13.8306 6.70617 15.9263C8.45575 18.0219 10.1742 19.0698 11.8616 19.0698H14.526C14.6325 19.0698 14.7125 19.0404 14.7658 18.9817C14.819 18.9231 14.8634 18.8099 14.899 18.6422L14.9523 18.3908L15.4585 16.1778C15.6006 15.876 15.7249 15.6748 15.8315 15.5742C16.0269 15.3898 16.2578 15.2976 16.5242 15.2976C16.9505 15.2976 17.3857 15.5407 17.8297 16.0269L20.0944 18.7428C20.2365 18.9608 20.3875 19.0698 20.5473 19.0698H24.9435C25.4763 19.0698 25.7428 18.944 25.7428 18.6925C25.7428 18.6087 25.7161 18.5249 25.6628 18.4411L21.7996 13.8893C21.4976 13.5372 21.3466 13.16 21.3466 12.7576C21.3466 12.3553 21.4887 11.9697 21.7729 11.6008C22.0038 11.2655 22.4523 10.7081 23.1184 9.92849C23.7845 9.1489 24.3662 8.41961 24.8635 7.74062C25.3609 7.06163 25.6895 6.4455 25.8493 5.89225L25.9293 5.56532C25.9115 5.53179 25.9026 5.47731 25.9026 5.40186C25.9026 5.32642 25.8937 5.26355 25.876 5.21325H21.693C21.4266 5.31384 21.2134 5.46473 21.0536 5.66592L20.8937 6.14373C20.4496 7.30053 19.2862 9.08603 17.4034 11.5002C17.0304 11.8355 16.5953 12.0032 16.0979 12.0032Z" fill="#666666"/>
<g clip-path="url(#clip0_2403_2147)">
<path d="M65.9805 1.07812C67.6471 1.07812 69.0078 1.09766 70.0625 1.13672C70.9609 1.17578 71.7617 1.33203 72.4648 1.60547C73.1419 1.86589 73.7279 2.24349 74.2227 2.73828C74.7174 3.23307 75.0951 3.81901 75.3555 4.49609C75.6289 5.19922 75.7852 6 75.8242 6.89844C75.8633 7.95312 75.8828 9.3138 75.8828 10.9805C75.8828 12.6471 75.8633 14.0078 75.8242 15.0625C75.7852 15.9609 75.6289 16.7617 75.3555 17.4648C75.0951 18.1419 74.7174 18.7279 74.2227 19.2227C73.7279 19.7174 73.1419 20.0951 72.4648 20.3555C71.7617 20.6289 70.9609 20.7852 70.0625 20.8242C69.0078 20.8633 67.6471 20.8828 65.9805 20.8828C64.3138 20.8828 62.9531 20.8633 61.8984 20.8242C61 20.7852 60.1992 20.6289 59.4961 20.3555C58.819 20.0951 58.2331 19.7174 57.7383 19.2227C57.2435 18.7279 56.8659 18.1419 56.6055 17.4648C56.332 16.7617 56.1758 15.9609 56.1367 15.0625C56.0977 14.0078 56.0781 12.6471 56.0781 10.9805C56.0781 9.3138 56.0977 7.95312 56.1367 6.89844C56.1758 6 56.332 5.19922 56.6055 4.49609C56.8659 3.81901 57.2435 3.23307 57.7383 2.73828C58.2331 2.24349 58.819 1.86589 59.4961 1.60547C60.1992 1.33203 61 1.17578 61.8984 1.13672C62.9531 1.09766 64.3138 1.07812 65.9805 1.07812ZM65.9805 2.36719C64.2487 2.36719 62.8359 2.38672 61.7422 2.42578C61.0391 2.45182 60.388 2.57552 59.7891 2.79687C58.8516 3.1875 58.1875 3.85156 57.7969 4.78906C57.5755 5.38802 57.4518 6.03906 57.4258 6.74219C57.3867 7.83594 57.3672 9.2487 57.3672 10.9805C57.3672 12.7122 57.3867 14.125 57.4258 15.2187C57.4518 15.9219 57.5755 16.5729 57.7969 17.1719C58.1875 18.1094 58.8516 18.7734 59.7891 19.1641C60.388 19.3854 61.0391 19.5091 61.7422 19.5352C62.8359 19.5742 64.2487 19.5937 65.9805 19.5937C67.7122 19.5937 69.125 19.5742 70.2188 19.5352C70.9219 19.5091 71.5729 19.3854 72.1719 19.1641C73.1094 18.7734 73.7734 18.1094 74.1641 17.1719C74.3854 16.5729 74.5091 15.9219 74.5352 15.2187C74.5742 14.125 74.5938 12.7122 74.5938 10.9805C74.5938 9.2487 74.5742 7.83594 74.5352 6.74219C74.5091 6.03906 74.3854 5.38802 74.1641 4.78906C73.7734 3.85156 73.1094 3.1875 72.1719 2.79687C71.5729 2.57552 70.9219 2.45182 70.2188 2.42578C69.125 2.38672 67.7122 2.36719 65.9805 2.36719ZM65.9805 14.9453C67.0742 14.9453 68.0085 14.5579 68.7832 13.7832C69.5579 13.0085 69.9453 12.0742 69.9453 10.9805C69.9453 9.88672 69.5579 8.95247 68.7832 8.17773C68.0085 7.40299 67.0742 7.01562 65.9805 7.01562C64.8867 7.01562 63.9525 7.40299 63.1777 8.17773C62.403 8.95247 62.0156 9.88672 62.0156 10.9805C62.0156 12.0742 62.403 13.0085 63.1777 13.7832C63.9525 14.5579 64.8867 14.9453 65.9805 14.9453ZM65.9805 5.90234C67.3867 5.90234 68.5846 6.39713 69.5742 7.38672C70.5638 8.3763 71.0586 9.57422 71.0586 10.9805C71.0586 12.3867 70.5638 13.5846 69.5742 14.5742C68.5846 15.5638 67.3867 16.0586 65.9805 16.0586C64.5742 16.0586 63.3763 15.5638 62.3867 14.5742C61.3971 13.5846 60.9023 12.3867 60.9023 10.9805C60.9023 9.57422 61.3971 8.3763 62.3867 7.38672C63.3763 6.39713 64.5742 5.90234 65.9805 5.90234ZM72.4648 5.70703C72.4648 6.03255 72.3477 6.30924 72.1133 6.53711C71.8789 6.76497 71.5924 6.87891 71.2539 6.87891C70.9284 6.87891 70.6517 6.76497 70.4238 6.53711C70.196 6.30924 70.082 6.03255 70.082 5.70703C70.082 5.36849 70.196 5.08203 70.4238 4.84766C70.6517 4.61328 70.9284 4.49609 71.2539 4.49609C71.5794 4.49609 71.8626 4.61654 72.1035 4.85742C72.3444 5.09831 72.4648 5.38151 72.4648 5.70703Z" fill="#666666"/>
</g>
<path d="M120.5 1.83325H117.75C116.534 1.83325 115.369 2.30674 114.509 3.14957C113.65 3.99239 113.167 5.1355 113.167 6.32743V9.02394H110.417V12.6193H113.167V19.81H116.833V12.6193H119.583L120.5 9.02394H116.833V6.32743C116.833 6.08905 116.93 5.86042 117.102 5.69186C117.274 5.52329 117.507 5.4286 117.75 5.4286H120.5V1.83325Z" stroke="#666666" stroke-width="1.1" stroke-linecap="round" stroke-linejoin="round"/>
<defs>
<clipPath id="clip0_2403_2147">
<rect width="20" height="20" fill="white" transform="translate(56 1)"/>
</clipPath>
</defs>
</svg>
